<svg xmlns="http://www.w3.org/2000/svg" xmlns:xlink="http://www.w3.org/1999/xlink" width="197" height="50"><defs><path id="A" d="M0 .095h196.2V50H0V.095z"/><path id="B" d="M0 .095h196.2V50H0V.095z"/></defs><g fill="none"><g transform="translate(-40 -24)"><g transform="translate(40 24)"><g fill="#00A0DD"><path d="M133.976 32.762l-8.03 9.378-8.13-9.378h-.123v16.993h2.474V38.957l5.656 6.782h.123l5.68-6.782v10.797h2.474V32.762h-.123zm16.444 8.668c0-3.525-2.424-6.17-5.876-6.17s-5.876 2.645-5.876 6.17 2.424 6.17 5.876 6.17 5.876-2.645 5.876-6.17m-14.47 0c0-4.922 3.82-8.545 8.595-8.545s8.595 3.624 8.595 8.545-3.82 8.545-8.595 8.545-8.595-3.624-8.595-8.545m21.487-2.63v10.945h-2.45V32.86h.196l10.675 11.2V33.104h2.45V50h-.196l-10.675-11.2zm12.907-5.706h10.603v2.326h-7.983v4.775h7.076v2.277h-7.076v4.946h8.325v2.326h-10.945v-16.65zm11.778.01h2.9l4.26 7.468 4.187-7.468h2.742l-5.656 10v6.66h-2.62V43.12l-5.803-10.015z"/></g><g fill="#E54260"><path d="M67.73 35.33h-5v-2.346h12.62v2.346h-4.988v14.447H67.73V35.33zm9.683-2.346h10.694v2.346h-8.05v4.815h7.137v2.297h-7.137v4.988h8.396v2.346h-11.04V32.984zm15.734 2.346H95.8c2.47 0 3.532.964 3.532 2.988 0 2-1.037 2.988-3.532 2.988h-.967l5.14 8.47h2.9l-4.05-6.668c2.1-.765 3.26-2.445 3.26-4.8 0-3.186-2.247-5.335-6.175-5.335h-5.384v16.794h2.643V35.33z"/></g><mask id="C" fill="#fff"><use xlink:href="#A"/></mask><g fill="#E54260"><path d="M2.642 35.33h2.643c2.47 0 3.532.964 3.532 2.988 0 2-1.037 2.988-3.532 2.988h-.967l5.14 8.47h2.89l-4.05-6.668c2.1-.765 3.26-2.445 3.26-4.79 0-3.186-2.247-5.335-6.175-5.335H0v16.794h2.643V35.33z" mask="url(#C)"/><path d="M27.747 41.38c0-3.556-2.445-6.224-5.927-6.224s-5.926 2.667-5.926 6.224 2.445 6.224 5.926 6.224 5.927-2.667 5.927-6.224m-14.595 0c0-4.964 3.853-8.62 8.668-8.62s8.67 3.655 8.67 8.62S26.636 50 21.82 50s-8.668-3.655-8.668-8.62m33.552 0c0-3.556-2.445-6.224-5.927-6.224s-5.927 2.667-5.927 6.224 2.445 6.224 5.927 6.224 5.927-2.667 5.927-6.224m-14.595 0c0-4.964 3.853-8.62 8.668-8.62s8.668 3.655 8.668 8.62S45.593 50 40.777 50s-8.668-3.655-8.668-8.62m20.54 3.977c.765 1.457 2.075 2.272 3.803 2.272 1.778 0 2.964-.84 2.964-2.198 0-1.58-1.2-2.173-2.692-2.84l-1.16-.518c-2.47-1.086-4.174-2.322-4.174-4.94 0-2.57 1.952-4.372 4.816-4.372 2.32 0 3.877.865 4.94 2.643l-2 1.3c-.642-1.087-1.555-1.63-2.9-1.63-1.432 0-2.296.8-2.296 1.95 0 1.334.84 1.803 2.666 2.618l1.16.518c2.544 1.136 4.248 2.346 4.248 5.186 0 3.087-2.37 4.643-5.556 4.643-2.865 0-4.915-1.383-6.05-3.532l2.223-1.1z"/></g><path d="M97.045 4.942l-4.64 1.54 3.72 2.22.92-3.76z" fill="#E2271D"/><mask id="D" fill="#fff"><use xlink:href="#B"/></mask><path d="M100.966 7.838l-3.36-5.175 10.127-2.57-6.766 7.744z" mask="url(#D)" fill="#E54260"/><path d="M107.03 17.173l-9.423-14.5-5.482 22.28 14.905-7.77z" fill="#FCC42F"/><path d="M92.124 24.943l14.76-7.992 2.002 20.14-16.763-12.147z" fill="#59B7B2"/><path d="M106.885 16.95l9.45-8.746 8.044 12.2-8.504 11.714-8.99-15.177z" fill="#00A0DD"/><path d="M106.885 16.95l3.262 32.82 5.727-17.642-8.99-15.177z" fill="#FCC42F"/><path d="M116.334 8.19l14.05 21.39-1.502-12.384-12.547-9.005z" fill="#266093"/></g></g></g></svg>